<svg id="Capa_1" height="512" viewBox="0 0 465.97 465.97" width="512" xmlns="http://www.w3.org/2000/svg"><path d="M26.368 338.821h95.362V465.97H26.368zm32.598-103.172l-6.573 21.723 18.629-12.964a5.295 5.295 0 016.052 0l18.629 12.964-6.573-21.723a5.302 5.302 0 011.87-5.757l18.086-13.712-22.692-.463a5.297 5.297 0 01-4.896-3.557l-7.451-21.437-7.452 21.438a5.297 5.297 0 01-4.896 3.557l-22.692.463 18.087 13.711a5.3 5.3 0 011.872 5.757zm126.338 29.002h95.362V465.97h-95.362zm32.598-103.173l-6.573 21.723 18.629-12.963a5.29 5.29 0 013.026-.949 5.29 5.29 0 013.025.949l18.631 12.964-6.573-21.724a5.3 5.3 0 011.871-5.756l18.085-13.711-22.691-.463a5.296 5.296 0 01-4.896-3.557l-7.452-21.438-7.452 21.438a5.297 5.297 0 01-4.896 3.557l-22.692.463 18.087 13.711a5.3 5.3 0 011.871 5.756zM376.838 44.925l-6.573 21.724 18.631-12.964a5.292 5.292 0 016.05 0l18.631 12.964-6.573-21.724a5.3 5.3 0 011.871-5.756l18.085-13.711-22.691-.463a5.296 5.296 0 01-4.896-3.557L391.921 0l-7.452 21.438a5.297 5.297 0 01-4.896 3.557l-22.691.463 18.085 13.711a5.3 5.3 0 011.871 5.756zM344.24 148.098V465.97h95.362V148.098zm63.575 249c0 2.927-2.371 5.298-5.298 5.298s-5.298-2.371-5.298-5.298V216.97a5.298 5.298 0 0110.596 0z" id="C14_x2C__Achievements_x2C__analysis_x2C__performance_x2C__positions"/></svg>