<svg id="Capa_1" enable-background="new 0 0 465.97 465.97" height="512" viewBox="0 0 465.97 465.97" width="512" xmlns="http://www.w3.org/2000/svg"><g><g id="C14_x2C__Achievements_x2C__analysis_x2C__performance_x2C__positions"><g><path d="m26.368 338.821h95.362v127.149h-95.362z"/><path d="m58.966 235.649-6.573 21.723 18.629-12.964c.909-.633 1.968-.949 3.026-.949 1.059 0 2.117.317 3.026.949l18.629 12.964-6.573-21.723c-.641-2.121.105-4.417 1.87-5.757l18.086-13.712-22.692-.463c-2.216-.045-4.168-1.464-4.896-3.557l-7.451-21.437-7.452 21.438c-.728 2.094-2.681 3.512-4.896 3.557l-22.692.463 18.087 13.711c1.767 1.34 2.513 3.636 1.872 5.757z"/><path d="m185.304 264.651h95.362v201.319h-95.362z"/><path d="m217.902 161.478-6.573 21.723 18.629-12.963c.909-.633 1.968-.949 3.026-.949 1.059 0 2.117.317 3.025.949l18.631 12.964-6.573-21.724c-.641-2.12.105-4.416 1.871-5.756l18.085-13.711-22.691-.463c-2.216-.045-4.169-1.464-4.896-3.557l-7.452-21.438-7.452 21.438c-.728 2.094-2.681 3.512-4.896 3.557l-22.692.463 18.087 13.711c1.766 1.339 2.512 3.635 1.871 5.756z"/><path d="m376.838 44.925-6.573 21.724 18.631-12.964c.908-.633 1.967-.949 3.025-.949s2.117.317 3.025.949l18.631 12.964-6.573-21.724c-.641-2.12.105-4.416 1.871-5.756l18.085-13.711-22.691-.463c-2.216-.045-4.169-1.464-4.896-3.557l-7.452-21.438-7.452 21.438c-.728 2.094-2.681 3.512-4.896 3.557l-22.691.463 18.085 13.711c1.766 1.339 2.512 3.635 1.871 5.756z"/><path d="m344.24 148.098v317.872h95.362v-317.872zm63.575 249c0 2.927-2.371 5.298-5.298 5.298s-5.298-2.371-5.298-5.298v-180.128c0-2.925 2.371-5.298 5.298-5.298s5.298 2.372 5.298 5.298z"/></g></g></g></svg>