<svg height="512" viewBox="0 0 48 48" width="512" xmlns="http://www.w3.org/2000/svg"><g id="Line"><path d="M43.87 20.75a1.12 1.12 0 01-.27-1.35l.63-1.22a3.15 3.15 0 00.1-2.6 3.11 3.11 0 00-1.91-1.76l-1.31-.43a1.12 1.12 0 01-.76-1.14l.11-1.37a3.11 3.11 0 00-3.34-3.34l-1.37.11a1.1 1.1 0 01-1.14-.76l-.43-1.31a3.1 3.1 0 00-4.35-1.81l-1.23.63a1.1 1.1 0 01-1.34-.27l-.9-1a3.11 3.11 0 00-4.72 0l-.89 1a1.12 1.12 0 01-1.35.27l-1.22-.63a3.15 3.15 0 00-2.6-.1 3.11 3.11 0 00-1.76 1.91l-.43 1.31a1.11 1.11 0 01-1.14.76l-1.37-.11a3.12 3.12 0 00-3.34 3.34l.11 1.37a1.1 1.1 0 01-.76 1.14l-1.31.42a3.13 3.13 0 00-1.81 4.36l.63 1.23a1.1 1.1 0 01-.27 1.34l-1 .9a3.11 3.11 0 000 4.72l1 .89a1.12 1.12 0 01.27 1.35l-.63 1.22a3.15 3.15 0 00-.1 2.6 3.11 3.11 0 001.91 1.76l1.31.43a1.12 1.12 0 01.76 1.14l-.11 1.37a3.12 3.12 0 003.34 3.34l1.37-.11a1.1 1.1 0 011.14.76l.42 1.31a3.13 3.13 0 004.36 1.81l1.23-.63a1.1 1.1 0 011.34.27l.9 1A3.1 3.1 0 0024 46a3.13 3.13 0 002.36-1.08l.89-1.05a1.12 1.12 0 011.35-.27l1.22.63a3.15 3.15 0 002.6.1 3.11 3.11 0 001.76-1.91l.43-1.31a1.11 1.11 0 011.14-.76l1.37.11a3.11 3.11 0 003.34-3.34l-.11-1.37a1.1 1.1 0 01.76-1.14l1.31-.42a3.15 3.15 0 001.91-1.77 3.09 3.09 0 00-.11-2.59l-.62-1.23a1.1 1.1 0 01.27-1.34l1-.9a3.11 3.11 0 000-4.72zM24 38a14 14 0 1114-14 14 14 0 01-14 14z"/><path d="M24 12a12 12 0 1012 12 12 12 0 00-12-12zm6.71 8.71l-8 8a1 1 0 01-1.42 0l-4-4a1 1 0 011.42-1.42l3.29 3.3 7.29-7.3a1 1 0 011.42 1.42z"/></g></svg>