<svg xmlns="http://www.w3.org/2000/svg" viewBox="0 0 64 64" width="512" height="512"><g id="OUTLINE"><path d="M4 35h23v-2H3a1 1 0 00-1 1v24h2zM4 4h23V2H3a1 1 0 00-1 1v24h2z"/><path d="M61.118 14.79l1.437-.958-1.11-1.664-1.436.957a11.068 11.068 0 01-6.391 1.834L51.15 9.672a12.955 12.955 0 002.763.306 12.968 12.968 0 007.204-2.189l1.437-.957-1.11-1.664-1.436.957a10.945 10.945 0 01-9.993 1.117L48.72 4.46a3.003 3.003 0 00-4.693-.993A12.916 12.916 0 0031 4.138V2h-2v27H2v2h27v29H2v2h28a1 1 0 001-1v-5.465l.991-.66A11.054 11.054 0 0141 53.437V61a1 1 0 001 1h8a1 1 0 001-1v-2.367a12.99 12.99 0 0010.118-1.844l1.437-.957-1.11-1.664-1.436.957A11.053 11.053 0 0151 56.563v-4.93a12.99 12.99 0 0010.118-1.844l1.437-.957-1.11-1.664-1.436.957A11.056 11.056 0 0151 49.563v-4.93a12.99 12.99 0 0010.118-1.844l1.437-.957-1.11-1.664-1.436.957A11.06 11.06 0 0151 42.562V39a1 1 0 00-1-1h-1v-.99a12.899 12.899 0 0012.118-1.22l1.437-.958-1.11-1.664-1.436.957A10.92 10.92 0 0149 34.791V32h4.719a4.969 4.969 0 003.536-1.475l.003.01a12.96 12.96 0 003.86-1.746l1.437-.957-1.11-1.664-1.436.957a10.987 10.987 0 01-1.37.772 4.979 4.979 0 00-.389-3.011l-.674-1.445a12.903 12.903 0 003.542-1.652l1.437-.957-1.11-1.664-1.436.957a10.906 10.906 0 01-3.292 1.475l-2.17-4.651a13.055 13.055 0 006.571-2.16zM31.991 5.874a10.927 10.927 0 0110.954-.693l-1.951 4.18A13.072 13.072 0 0031 11.142V6.535zM42.995 38A12.933 12.933 0 0031 39.142v-4.607l.991-.66A10.924 10.924 0 0143 33.209V38zM31 41.535l.991-.66A10.951 10.951 0 0141 39.425v4.94a13.074 13.074 0 00-10 1.777zm0-9.397v-4.603l.991-.66a10.983 10.983 0 011.37-.771 4.923 4.923 0 001.338 4.372A13.054 13.054 0 0031 32.138zm3.357-8.553A12.954 12.954 0 0031 25.139v-4.604l.991-.66a10.951 10.951 0 014.927-1.779zm3.525-7.553A12.947 12.947 0 0031 18.138v-4.603l.991-.66a11.06 11.06 0 018.13-1.643zM31 53.142v-4.607l.991-.66A11.054 11.054 0 0141 46.437v4.927a13.068 13.068 0 00-10 1.778zM49 60h-6V40h6zm-4-22V27a1 1 0 012 0v11zm11.249-9.389A2.986 2.986 0 0153.719 30H49v-3a3 3 0 00-6 0v3h-4.719a3 3 0 01-2.719-4.269l9.532-20.424a1 1 0 011.812 0l9.531 20.424a2.986 2.986 0 01-.188 2.88z"/></g></svg>