<svg version="1.1" id="Layer_1" xmlns="http://www.w3.org/2000/svg" x="0" y="0" viewBox="0 0 503.607 503.607" xml:space="preserve"><path d="M461.64 259.945c-4.196 0-8.393 4.197-8.393 8.393 0 5.036 3.357 8.393 8.393 8.393s8.393-3.357 8.393-8.393-3.357-8.393-8.393-8.393zm25.18-25.18c-4.196 0-8.393 4.196-8.393 8.393 0 5.036 3.357 8.393 8.393 8.393s8.393-3.357 8.393-8.393-3.357-8.393-8.393-8.393zm-50.36 0c-4.197 0-8.393 4.196-8.393 8.393 0 5.036 3.357 8.393 8.393 8.393s8.393-3.357 8.393-8.393-3.357-8.393-8.393-8.393zm-25.181 25.18c-4.196 0-8.393 4.197-8.393 8.393 0 5.036 3.357 8.393 8.393 8.393s8.393-3.357 8.393-8.393-3.357-8.393-8.393-8.393zm-50.36 0c-4.197 0-8.393 4.197-8.393 8.393 0 5.036 3.357 8.393 8.393 8.393s8.393-3.357 8.393-8.393-3.357-8.393-8.393-8.393zm25.18-25.18c-4.196 0-8.393 4.196-8.393 8.393 0 5.036 3.357 8.393 8.393 8.393s8.393-3.357 8.393-8.393-3.357-8.393-8.393-8.393zm-50.362 0c-4.196 0-8.393 4.196-8.393 8.393 0 5.036 3.357 8.393 8.393 8.393s8.393-3.357 8.393-8.393-3.357-8.393-8.393-8.393zm-25.18 25.18c-4.196 0-8.393 4.197-8.393 8.393 0 5.036 3.357 8.393 8.393 8.393s8.393-3.357 8.393-8.393-3.356-8.393-8.393-8.393zm-50.361 0c-4.196 0-8.393 4.197-8.393 8.393 0 5.036 3.357 8.393 8.393 8.393s8.393-3.357 8.393-8.393-3.357-8.393-8.393-8.393zm25.182-25.18c-4.197 0-8.393 4.196-8.393 8.393 0 5.036 3.357 8.393 8.393 8.393s8.393-3.357 8.393-8.393-3.357-8.393-8.393-8.393zm176.262-25.18c-4.196-.001-8.393 4.196-8.393 8.393 0 5.036 3.357 8.393 8.393 8.393s8.393-3.357 8.393-8.393c0-5.036-3.357-8.393-8.393-8.393zm0-50.361c-4.196 0-8.393 4.196-8.393 8.393 0 5.036 3.357 8.393 8.393 8.393s8.393-3.357 8.393-8.393-3.357-8.393-8.393-8.393zm25.18 25.18c-4.196 0-8.393 4.197-8.393 8.393 0 5.036 3.357 8.393 8.393 8.393s8.393-3.357 8.393-8.393-3.357-8.393-8.393-8.393zm-50.36 0c-4.197 0-8.393 4.197-8.393 8.393 0 5.036 3.357 8.393 8.393 8.393s8.393-3.357 8.393-8.393-3.357-8.393-8.393-8.393zm-25.181 25.181c-4.196-.001-8.393 4.196-8.393 8.393 0 5.036 3.357 8.393 8.393 8.393s8.393-3.357 8.393-8.393c0-5.036-3.357-8.393-8.393-8.393zm-50.36 0c-4.197-.001-8.393 4.196-8.393 8.393 0 5.036 3.357 8.393 8.393 8.393s8.393-3.357 8.393-8.393c0-5.036-3.357-8.393-8.393-8.393zm50.36-50.361c-4.196 0-8.393 4.196-8.393 8.393 0 5.036 3.357 8.393 8.393 8.393s8.393-3.357 8.393-8.393-3.357-8.393-8.393-8.393zm-50.36 0c-4.197 0-8.393 4.196-8.393 8.393 0 5.036 3.357 8.393 8.393 8.393s8.393-3.357 8.393-8.393-3.357-8.393-8.393-8.393zm25.18 25.18c-4.196 0-8.393 4.197-8.393 8.393 0 5.036 3.357 8.393 8.393 8.393s8.393-3.357 8.393-8.393-3.357-8.393-8.393-8.393zm-50.362 0c-4.196 0-8.393 4.197-8.393 8.393 0 5.036 3.357 8.393 8.393 8.393s8.393-3.357 8.393-8.393-3.357-8.393-8.393-8.393zm-25.18 25.181c-4.196-.001-8.393 4.196-8.393 8.393 0 5.036 3.357 8.393 8.393 8.393s8.393-3.357 8.393-8.393c.001-5.036-3.356-8.393-8.393-8.393zm-50.361 0c-4.196-.001-8.393 4.196-8.393 8.393 0 5.036 3.357 8.393 8.393 8.393s8.393-3.357 8.393-8.393c0-5.036-3.357-8.393-8.393-8.393zm50.361-50.361c-4.196 0-8.393 4.196-8.393 8.393 0 5.036 3.357 8.393 8.393 8.393s8.393-3.357 8.393-8.393-3.356-8.393-8.393-8.393zm-50.361 0c-4.196 0-8.393 4.196-8.393 8.393 0 5.036 3.357 8.393 8.393 8.393s8.393-3.357 8.393-8.393-3.357-8.393-8.393-8.393zm25.182 25.18c-4.197 0-8.393 4.197-8.393 8.393 0 5.036 3.357 8.393 8.393 8.393s8.393-3.357 8.393-8.393-3.357-8.393-8.393-8.393zm176.262-75.541c-4.196 0-8.393 4.197-8.393 8.393 0 5.036 3.357 8.393 8.393 8.393s8.393-3.357 8.393-8.393-3.357-8.393-8.393-8.393zm25.18 25.181c-4.196-.001-8.393 4.196-8.393 8.393 0 5.036 3.357 8.393 8.393 8.393s8.393-3.357 8.393-8.393-3.357-8.393-8.393-8.393zm-50.36 0c-4.197-.001-8.393 4.196-8.393 8.393 0 5.036 3.357 8.393 8.393 8.393s8.393-3.357 8.393-8.393-3.357-8.393-8.393-8.393zm50.36-50.361c-4.196 0-8.393 4.196-8.393 8.393 0 5.036 3.357 8.393 8.393 8.393s8.393-3.357 8.393-8.393-3.357-8.393-8.393-8.393zm-50.36 0c-4.197 0-8.393 4.196-8.393 8.393 0 5.036 3.357 8.393 8.393 8.393s8.393-3.357 8.393-8.393-3.357-8.393-8.393-8.393zm-25.181 25.18c-4.196 0-8.393 4.197-8.393 8.393 0 5.036 3.357 8.393 8.393 8.393s8.393-3.357 8.393-8.393-3.357-8.393-8.393-8.393zm-50.36 0c-4.197 0-8.393 4.197-8.393 8.393 0 5.036 3.357 8.393 8.393 8.393s8.393-3.357 8.393-8.393-3.357-8.393-8.393-8.393zm25.18 25.181c-4.196-.001-8.393 4.196-8.393 8.393 0 5.036 3.357 8.393 8.393 8.393s8.393-3.357 8.393-8.393-3.357-8.393-8.393-8.393zm-50.362 0c-4.196-.001-8.393 4.196-8.393 8.393 0 5.036 3.357 8.393 8.393 8.393s8.393-3.357 8.393-8.393-3.357-8.393-8.393-8.393zm50.362-50.361c-4.196 0-8.393 4.196-8.393 8.393 0 5.036 3.357 8.393 8.393 8.393s8.393-3.357 8.393-8.393-3.357-8.393-8.393-8.393zm-50.362 0c-4.196 0-8.393 4.196-8.393 8.393 0 5.036 3.357 8.393 8.393 8.393s8.393-3.357 8.393-8.393-3.357-8.393-8.393-8.393zm-25.18 25.18c-4.196 0-8.393 4.197-8.393 8.393 0 5.036 3.357 8.393 8.393 8.393s8.393-3.357 8.393-8.393-3.356-8.393-8.393-8.393zm-50.361 0c-4.196 0-8.393 4.197-8.393 8.393 0 5.036 3.357 8.393 8.393 8.393s8.393-3.357 8.393-8.393-3.357-8.393-8.393-8.393zm25.182 25.181c-4.197-.001-8.393 4.196-8.393 8.393 0 5.036 3.357 8.393 8.393 8.393s8.393-3.357 8.393-8.393-3.357-8.393-8.393-8.393zm0-50.361c-4.197 0-8.393 4.196-8.393 8.393 0 5.036 3.357 8.393 8.393 8.393s8.393-3.357 8.393-8.393-3.357-8.393-8.393-8.393zm176.262-25.18c-4.196-.001-8.393 4.196-8.393 8.393 0 5.036 3.357 8.393 8.393 8.393s8.393-3.357 8.393-8.393-3.357-8.393-8.393-8.393zm0-50.361c-4.196 0-8.393 4.196-8.393 8.393 0 5.036 3.357 8.393 8.393 8.393s8.393-3.357 8.393-8.393c0-5.036-3.357-8.393-8.393-8.393zm25.18 25.18c-4.196 0-8.393 4.197-8.393 8.393 0 5.036 3.357 8.393 8.393 8.393s8.393-3.357 8.393-8.393c0-5.036-3.357-8.393-8.393-8.393zm-50.36 0c-4.197 0-8.393 4.197-8.393 8.393 0 5.036 3.357 8.393 8.393 8.393s8.393-3.357 8.393-8.393c0-5.036-3.357-8.393-8.393-8.393zm-25.181 25.181c-4.196-.001-8.393 4.196-8.393 8.393 0 5.036 3.357 8.393 8.393 8.393s8.393-3.357 8.393-8.393-3.357-8.393-8.393-8.393zm-50.36 0c-4.197-.001-8.393 4.196-8.393 8.393 0 5.036 3.357 8.393 8.393 8.393s8.393-3.357 8.393-8.393-3.357-8.393-8.393-8.393zm50.36-50.361c-4.196 0-8.393 4.196-8.393 8.393 0 5.036 3.357 8.393 8.393 8.393s8.393-3.357 8.393-8.393c0-5.036-3.357-8.393-8.393-8.393zm-50.36 0c-4.197 0-8.393 4.196-8.393 8.393 0 5.036 3.357 8.393 8.393 8.393s8.393-3.357 8.393-8.393c0-5.036-3.357-8.393-8.393-8.393zm25.18 25.18c-4.196 0-8.393 4.197-8.393 8.393 0 5.036 3.357 8.393 8.393 8.393s8.393-3.357 8.393-8.393c0-5.036-3.357-8.393-8.393-8.393zm-50.362 0c-4.196 0-8.393 4.197-8.393 8.393 0 5.036 3.357 8.393 8.393 8.393s8.393-3.357 8.393-8.393c0-5.036-3.357-8.393-8.393-8.393zm-25.18 25.181c-4.196-.001-8.393 4.196-8.393 8.393 0 5.036 3.357 8.393 8.393 8.393s8.393-3.357 8.393-8.393-3.356-8.393-8.393-8.393zm-50.361 0c-4.196-.001-8.393 4.196-8.393 8.393 0 5.036 3.357 8.393 8.393 8.393s8.393-3.357 8.393-8.393-3.357-8.393-8.393-8.393zm50.361-50.361c-4.196 0-8.393 4.196-8.393 8.393 0 5.036 3.357 8.393 8.393 8.393s8.393-3.357 8.393-8.393c.001-5.036-3.356-8.393-8.393-8.393zm-50.361 0c-4.196 0-8.393 4.196-8.393 8.393 0 5.036 3.357 8.393 8.393 8.393s8.393-3.357 8.393-8.393c0-5.036-3.357-8.393-8.393-8.393zm25.182 25.18c-4.197 0-8.393 4.197-8.393 8.393 0 5.036 3.357 8.393 8.393 8.393s8.393-3.357 8.393-8.393c0-5.036-3.357-8.393-8.393-8.393z"/><path d="M502.607 8.393c0-5.036-3.357-8.393-8.393-8.393H7.393C2.357 0-1 3.357-1 8.393v486.821c0 5.036 3.357 8.393 8.393 8.393h243.41c5.036 0 8.394-3.358 8.393-8.395v-100.72H460.64c23.502 0 41.967-26.02 41.967-58.754V8.393zm-243.409 8.394H485.82v271.718c-2.291-2.383-4.772-4.432-7.402-6.125-.385-.249-.77-.496-1.162-.728-.242-.143-.489-.275-.734-.412a33.916 33.916 0 00-.988-.539c-.311-.162-.626-.314-.941-.466a36.189 36.189 0 00-1.889-.843c-.154-.063-.309-.121-.464-.182a32.108 32.108 0 00-6.052-1.716 29.647 29.647 0 00-2.749-.371c-.283-.025-.566-.054-.851-.072a30.888 30.888 0 00-1.948-.067H259.198V16.787zm-41.969 360.917c-7.973 0-15.355-6.806-20.037-17.079-3.203-7.029-5.143-15.682-5.143-24.888 0-4.957.562-9.754 1.581-14.223 3.64-15.961 13.106-27.744 23.599-27.744h33.551l.023.001h180.275c-7.691 10.62-12.406 25.434-12.406 41.967 0 16.533 4.715 31.346 12.405 41.966H217.229zm25.182 109.116H15.787V16.787H242.41v260.197h-25.181c-23.501 0-41.967 26.02-41.967 58.754s18.465 58.754 41.967 58.754h25.181v92.328zM460.64 377.704c-7.973 0-15.355-6.806-20.037-17.079-3.203-7.029-5.143-15.682-5.143-24.888 0-4.957.562-9.754 1.581-14.223 3.637-15.95 13.094-27.727 23.577-27.743h.023c9.088 0 17.403 8.848 21.832 21.589 2.115 6.085 3.348 13.053 3.347 20.377 0 22.662-11.75 41.967-25.18 41.967z" transform="translate(1)"/></svg>