<svg id="Capa_1" height="512" viewBox="0 0 609.621 609.621" width="512" xmlns="http://www.w3.org/2000/svg"><g id="Page-1_41_"><g id="_x30_42---Reinforced-Concrete"><path id="Shape_111_" d="M579.14 101.604c16.799-.083 30.398-13.681 30.481-30.481 0-16.834-13.647-30.481-30.481-30.481h-10.16v-10.16a29.712 29.712 0 00-8.88-21.408A29.82 29.82 0 00538.499.001c-16.834 0-30.481 13.647-30.481 30.481v10.16h-40.641v-10.16a29.712 29.712 0 00-8.88-21.408A29.82 29.82 0 00436.896.001c-16.834 0-30.481 13.647-30.481 30.481v10.16h-40.641v-10.16a29.712 29.712 0 00-8.88-21.408A29.82 29.82 0 00335.293.001c-16.834 0-30.481 13.647-30.481 30.481v10.16H271.19c0-22.446-18.196-40.641-40.641-40.641H50.802C22.759.034.034 22.759 0 50.802v508.017c.034 28.043 22.759 50.768 50.802 50.802h508.017c28.043-.034 50.768-22.759 50.802-50.802V379.083c0-22.446-18.196-40.641-40.641-40.641v-33.631h10.16c16.799-.083 30.398-13.681 30.481-30.481 0-16.834-13.647-30.481-30.481-30.481h-10.16v-40.641h10.16c16.799-.083 30.398-13.681 30.481-30.481 0-16.834-13.647-30.481-30.481-30.481h-10.16v-40.641h10.16zm0-40.641c5.611 0 10.16 4.549 10.16 10.16a9.934 9.934 0 01-3.109 7.244 9.806 9.806 0 01-7.051 2.916h-10.16v-20.32zm-50.802-30.481c0-5.611 4.549-10.16 10.16-10.16a9.936 9.936 0 017.234 3.109 9.72 9.72 0 012.926 7.051v312.085c-3.546 1.138-6.889 2.306-10.16 3.465-3.272 1.158-6.675 2.347-10.16 3.444zm-81.283 71.122v40.641h-20.321v-40.641zm60.962 0v40.641h-40.641v-40.641zM365.772 284.49v-20.321h142.245v20.321zm142.245-121.924v20.321H365.772v-20.321zm-81.283 81.283v-40.641h20.321v40.641zm-60.962 0v-40.641h40.641v40.641zm101.604-40.642h40.641v40.641h-40.641zm-60.962-60.962h-40.641v-40.641h40.641zm-40.642 162.566h40.641v34.108a170.343 170.343 0 00-37.309-3.627c-1.148 0-2.215.132-3.333.173v-30.654zm60.962 0h20.321v46.616c-6.096-1.585-11.501-3.465-16.978-5.395l-3.343-1.168zm40.642 0h40.641v49.267a167.328 167.328 0 01-23.735 1.534c-6.35 0-11.888-.274-16.907-.732v-50.069zM426.734 30.482c0-5.611 4.549-10.16 10.16-10.16a9.936 9.936 0 017.234 3.109 9.72 9.72 0 012.926 7.051v10.16h-20.321v-10.16zm81.283 30.481v20.321H365.772V60.963zM325.131 30.482c0-5.611 4.549-10.16 10.16-10.16a9.936 9.936 0 017.234 3.109 9.72 9.72 0 012.926 7.051v307.909a121.276 121.276 0 00-20.321 7.224V30.482zm-54.409 172.725h34.088v40.641h-30.654c0-1.148.173-2.245.173-3.414a170.528 170.528 0 00-3.607-37.227zm34.088-60.962h-50.06c-.467-5.029-.742-10.597-.742-16.988-.049-7.91.46-15.815 1.524-23.653h49.278zm0 20.321v20.321h-40.022c-.406-1.138-.803-2.296-1.199-3.424-1.92-5.446-3.8-10.811-5.375-16.897zm-33.59 101.603h33.59v20.321h-40.834a122.22 122.22 0 007.244-20.321zm-17.76 40.642h51.35v51.32c-23.003 12.629-33.529 16.805-50.802-.518s-13.157-27.83-.548-50.802zm51.35-223.528h-44.705c1.097-3.495 2.276-6.828 3.465-10.16 1.189-3.333 2.317-6.594 3.444-10.16h37.796zm284.49 297.8v179.736c0 16.834-13.647 30.481-30.481 30.481H50.802c-16.834 0-30.481-13.647-30.481-30.481V50.802c0-16.834 13.647-30.481 30.481-30.481h179.736a20.373 20.373 0 0119.793 25.096 184.312 184.312 0 01-5.903 18.898 158.348 158.348 0 00-10.739 60.962 158.31 158.31 0 0010.739 60.962 139.192 139.192 0 019.581 54.195 106.186 106.186 0 01-17.516 53.037c-12.192 22.15-26.082 47.266 3.14 76.507 29.221 29.241 54.317 15.383 76.467 3.15a106.095 106.095 0 0153.006-17.516 139.317 139.317 0 0154.216 9.581 158.191 158.191 0 0060.962 10.739 158.063 158.063 0 0060.962-10.75 185.297 185.297 0 0118.949-5.903 20.39 20.39 0 0125.105 19.804zm-10.16-114.914c5.611 0 10.16 4.549 10.16 10.16a9.934 9.934 0 01-3.109 7.244 9.806 9.806 0 01-7.051 2.916h-10.16v-20.321h10.16zm0-101.603c5.611 0 10.16 4.549 10.16 10.16a9.934 9.934 0 01-3.109 7.244 9.806 9.806 0 01-7.051 2.916h-10.16v-20.321h10.16z"/><path id="Shape_110_" d="M81.283 497.857c-16.834 0-30.481 13.647-30.481 30.481s13.647 30.481 30.481 30.481 30.481-13.647 30.481-30.481-13.647-30.481-30.481-30.481zm0 40.641c-5.611 0-10.16-4.549-10.16-10.16s4.549-10.16 10.16-10.16 10.16 4.549 10.16 10.16c0 5.612-4.549 10.16-10.16 10.16z"/><path id="Shape_109_" d="M182.886 50.802c-16.834 0-30.481 13.647-30.481 30.481s13.647 30.481 30.481 30.481 30.481-13.647 30.481-30.481-13.646-30.481-30.481-30.481zm0 40.642c-5.611 0-10.16-4.549-10.16-10.16s4.549-10.16 10.16-10.16 10.16 4.549 10.16 10.16c.001 5.611-4.548 10.16-10.16 10.16z"/><g clip-rule="evenodd" fill-rule="evenodd"><circle id="Oval" cx="91.443" cy="467.376" r="10.16"/><circle id="Oval_1_" cx="162.566" cy="142.245" r="10.16"/><circle id="Oval_2_" cx="548.659" cy="406.414" r="10.16"/><path id="Path_56_" d="M491.608 500.001a10.16 10.16 0 004.971 18.114 10.16 10.16 0 10-4.971-18.114z"/><path id="Path_55_" d="M471.288 398.398a10.16 10.16 0 004.971 18.114 10.16 10.16 0 10-4.971-18.114z"/></g></g></g></svg>