<svg id="Capa_1" height="512" width="512" xmlns="http://www.w3.org/2000/svg"><path d="M451.152 503.385L427.883 348.69a7.501 7.501 0 00-14.834 2.23L435.022 497h-18.236L399.52 382.208a7.508 7.508 0 00-.075-1.312l-5.258-34.148-.003-.014-11.598-77.109-.001-.01-4.36-28.986-17.453-116.035v-.007l-11.174-74.285-.556-3.696h18.235L409.29 325.92c.616 4.097 4.437 6.91 8.532 6.302a7.501 7.501 0 006.302-8.532L382.447 46.605h35.428c4.143 0 7.5-3.357 7.5-7.5V7.5c0-4.143-3.357-7.5-7.5-7.5H94.125a7.499 7.499 0 00-7.5 7.5v31.605c0 4.143 3.357 7.5 7.5 7.5h35.427l-68.704 456.78A7.5 7.5 0 0068.265 512h33.405a7.502 7.502 0 007.417-6.385l49.558-329.488 49.558 329.488A7.502 7.502 0 00215.62 512h33.405a7.5 7.5 0 005.684-2.607 7.496 7.496 0 001.291-2.148 7.496 7.496 0 001.291 2.148 7.5 7.5 0 005.684 2.607h33.405a7.502 7.502 0 007.417-6.385l17.459-116.078h64.198l17.459 116.078A7.502 7.502 0 00410.33 512h33.405a7.503 7.503 0 007.417-8.615zM231.926 340.389l-9.349-62.159h66.847l-9.349 62.159zm-11.605-77.16l-2.88-19.147h146.135l2.88 19.147zm101.013-96.306h18.236l-9.349 62.159h-18.236zm24.057 62.159l7.964-52.953 7.965 52.953zM336.652 65.08l7.926 52.696h-15.852zm9.815 67.695l3.133 19.147H203.579l-2.88-19.147zm-40.302 34.148l-9.349 62.159h-81.631l-9.349-62.159zm-1.572 111.306h18.235l-9.349 62.159h-18.235zm33.405 0h30.714l9.349 62.159h-49.413zM101.625 15h308.75v16.605H304.448c-4.143 0-7.5 3.357-7.5 7.5s3.357 7.5 7.5 7.5h19.813l-10.705 71.17H198.443l-10.705-71.17h91.71c4.143 0 7.5-3.357 7.5-7.5s-3.357-7.5-7.5-7.5H101.625zm-6.411 482H76.978l64.965-431.92 9.118 60.622zm126.862 0L154.333 46.605h18.236l11.997 79.761.002.024 5.137 34.147.003.015 11.602 77.133.001.011 5.136 34.147.004.02 11.6 77.123a.08.08 0 01.001.016l5.137 34.148.001.008L240.313 497zM256 500.444l-16.681-110.906h33.363zM289.924 497h-18.236l16.163-107.463h18.236zm-52.862-122.463l-2.88-19.148h146.135l2.88 19.148z"/></svg>