<?xml version="1.0" encoding="iso-8859-1"?>
<!-- Generator: Adobe Illustrator 19.0.0, SVG Export Plug-In . SVG Version: 6.00 Build 0)  -->
<svg version="1.1" id="Layer_1" xmlns="http://www.w3.org/2000/svg" xmlns:xlink="http://www.w3.org/1999/xlink" x="0px" y="0px"
	 viewBox="0 0 512 512" style="enable-background:new 0 0 512 512;" xml:space="preserve">
<g>
	<g>
		<path d="M256,83.349C160.8,83.349,83.349,160.8,83.349,256S160.8,428.651,256,428.651S428.651,351.2,428.651,256
			S351.2,83.349,256,83.349z M336.875,218.112L235.84,319.147c-6.968,6.97-18.286,6.975-25.258,0l-35.457-35.458
			c-6.975-6.975-6.975-18.283,0-25.258s18.284-6.975,25.258,0l22.828,22.828l88.405-88.405c6.974-6.974,18.283-6.974,25.258,0
			C343.85,199.828,343.85,211.137,336.875,218.112z"/>
	</g>
</g>
<g>
	<g>
		<path d="M256,0C114.509,0,0,114.496,0,256c0,141.491,114.496,256,256,256c141.491,0,256-114.496,256-256
			C512,114.509,397.504,0,256,0z M256,464.372c-114.896,0-208.372-93.476-208.372-208.372S141.104,47.628,256,47.628
			S464.372,141.104,464.372,256S370.896,464.372,256,464.372z"/>
	</g>
</g>
<g>
</g>
<g>
</g>
<g>
</g>
<g>
</g>
<g>
</g>
<g>
</g>
<g>
</g>
<g>
</g>
<g>
</g>
<g>
</g>
<g>
</g>
<g>
</g>
<g>
</g>
<g>
</g>
<g>
</g>
</svg>
