<?xml version="1.0" encoding="utf-8"?><svg viewBox="0 0 512 512" xmlns="http://www.w3.org/2000/svg" xmlns:xlink="http://www.w3.org/1999/xlink"><style>:root>svg{display:none}:root>svg:target{display:block}</style><svg viewBox="0 0 512 512" id="advantages" xmlns="http://www.w3.org/2000/svg"><path d="M419.337 457.107h.01zM256 47.294c-41.962 0-81.272 16.485-110.702 46.433l-.441.451a7.484 7.484 0 0010.703 10.461l.426-.436C182.566 77.155 218.085 62.26 256 62.26c77.314 0 140.214 62.899 140.214 140.214S333.314 342.688 256 342.688s-140.214-62.9-140.214-140.214c0-25.258 6.788-50.015 19.63-71.595a7.483 7.483 0 00-12.861-7.653c-14.219 23.894-21.735 51.298-21.735 79.249 0 85.566 69.613 155.18 155.179 155.18s155.179-69.614 155.179-155.18S341.566 47.294 256 47.294z"/><path d="M445.534 171.332c-4.06-6.045-7.894-11.755-9.335-17.144-1.537-5.751-1.078-12.836-.591-20.337.726-11.189 1.477-22.76-4.239-32.638-5.804-10.032-16.289-15.181-26.429-20.161-6.667-3.274-12.965-6.367-17.058-10.46-4.093-4.094-7.186-10.391-10.461-17.059-4.979-10.139-10.128-20.624-20.161-26.428-9.878-5.715-21.448-4.964-32.638-4.239-7.501.487-14.585.947-20.338-.591-5.389-1.441-11.099-5.275-17.144-9.335C278.111 6.875 267.874 0 256 0s-22.111 6.875-31.143 12.941c-6.045 4.06-11.754 7.894-17.143 9.334-5.751 1.538-12.836 1.078-20.337.591-11.19-.725-22.759-1.476-32.638 4.239-10.032 5.804-15.181 16.289-20.161 26.428-3.274 6.668-6.367 12.966-10.461 17.059-4.093 4.093-10.39 7.186-17.058 10.46-10.14 4.979-20.624 10.129-26.429 20.161-5.716 9.878-4.965 21.449-4.239 32.639.487 7.5.946 14.585-.591 20.336-1.441 5.389-5.275 11.099-9.335 17.144-6.065 9.032-12.94 19.268-12.94 31.142s6.874 22.111 12.94 31.143c4.059 6.045 7.894 11.755 9.334 17.144 1.537 5.751 1.078 12.836.591 20.337-.726 11.189-1.477 22.759 4.239 32.638 5.804 10.032 16.289 15.182 26.429 20.161 6.667 3.274 12.965 6.367 17.058 10.46 3.795 3.795 6.731 9.491 9.748 15.613l-54.351 99.99c-2.332 4.29-2.265 9.375.18 13.601 2.445 4.227 6.818 6.82 11.699 6.938l41.681 1.009 23.515 34.429c2.617 3.832 6.861 6.063 11.461 6.063.24 0 .482-.006.724-.018 4.876-.247 9.179-2.956 11.511-7.246l57.07-104.991c5.744 3.006 11.932 5.204 18.645 5.204 6.712 0 12.901-2.198 18.645-5.204l57.07 104.992c2.332 4.29 6.635 6.999 11.511 7.246.243.012.484.018.724.018 4.6 0 8.844-2.231 11.461-6.063l23.515-34.429 41.68-1.009c4.881-.118 9.255-2.712 11.699-6.938 2.445-4.227 2.512-9.311.18-13.601l-19.875-36.565a7.48 7.48 0 00-10.148-3.001 7.484 7.484 0 00-3.001 10.148l19.045 35.037-40.488.98a13.934 13.934 0 00-11.144 6.058l-22.842 33.443-56.648-104.216c5.955-3.999 11.585-7.751 16.901-9.172 5.751-1.537 12.836-1.078 20.337-.591 11.191.726 22.76 1.477 32.638-4.239 5.229-3.025 9.125-7.327 12.368-12.184l13.369 24.596a7.482 7.482 0 1013.149-7.147l-18.013-33.139c3.017-6.122 5.953-11.817 9.748-15.612 4.093-4.093 10.39-7.186 17.058-10.46 10.14-4.979 20.624-10.129 26.429-20.161 5.716-9.878 4.965-21.449 4.239-32.639-.487-7.5-.946-14.585.591-20.337 1.441-5.389 5.275-11.098 9.334-17.143 6.065-9.032 12.94-19.269 12.94-31.143.003-11.874-6.872-22.111-12.937-31.142zM167.967 496.061l-22.841-33.442a13.937 13.937 0 00-11.145-6.058l-40.487-.98 48.877-89.92c3.243 4.856 7.139 9.158 12.368 12.183 9.879 5.715 21.451 4.965 32.638 4.239 7.501-.487 14.586-.946 20.337.591 5.317 1.421 10.947 5.174 16.901 9.172zm265.142-270.788c-4.564 6.797-9.284 13.825-11.368 21.623-2.173 8.128-1.611 16.792-1.067 25.17.608 9.374 1.182 18.228-2.259 24.175-3.528 6.097-11.564 10.044-20.072 14.223-7.47 3.668-15.194 7.461-21.043 13.311-5.85 5.849-9.643 13.574-13.312 21.044-4.178 8.508-8.125 16.543-14.221 20.071-5.948 3.441-14.8 2.866-24.175 2.259-8.379-.544-17.042-1.105-25.17 1.067-7.797 2.085-14.825 6.804-21.622 11.369-7.963 5.348-15.484 10.399-22.8 10.399-7.315 0-14.836-5.051-22.799-10.399-6.797-4.564-13.824-9.284-21.623-11.369-4.462-1.193-9.084-1.561-13.733-1.561-3.82 0-7.658.249-11.437.495-9.375.607-18.228 1.183-24.175-2.259-6.097-3.528-10.044-11.564-14.222-20.072-3.668-7.47-7.462-15.194-13.312-21.044-5.849-5.849-13.573-9.643-21.043-13.311-8.508-4.178-16.544-8.125-20.072-14.223-3.441-5.947-2.867-14.801-2.259-24.174.544-8.378 1.106-17.042-1.067-25.17-2.084-7.798-6.804-14.827-11.369-21.623-5.347-7.963-10.398-15.484-10.398-22.799s5.051-14.836 10.398-22.799c4.565-6.797 9.284-13.825 11.369-21.623 2.173-8.128 1.611-16.792 1.067-25.17-.608-9.374-1.182-18.228 2.259-24.175 3.528-6.097 11.564-10.044 20.072-14.223 7.47-3.668 15.194-7.462 21.043-13.311s9.643-13.574 13.312-21.044c4.178-8.507 8.125-16.543 14.222-20.071 5.947-3.44 14.8-2.866 24.175-2.259 8.378.544 17.041 1.106 25.17-1.067 7.797-2.085 14.825-6.804 21.622-11.369 7.963-5.348 15.484-10.399 22.8-10.399 7.315 0 14.836 5.051 22.799 10.398 6.797 4.565 13.825 9.285 21.623 11.369 8.128 2.173 16.793 1.611 25.171 1.067 9.374-.607 18.228-1.182 24.174 2.259 6.097 3.528 10.044 11.564 14.222 20.071 3.668 7.47 7.462 15.194 13.312 21.044 5.849 5.849 13.574 9.643 21.043 13.311 8.508 4.178 16.543 8.125 20.071 14.222 3.441 5.947 2.867 14.801 2.259 24.174-.544 8.378-1.106 17.042 1.067 25.17 2.084 7.798 6.804 14.827 11.369 21.623 5.347 7.963 10.398 15.484 10.398 22.799 0 7.317-5.051 14.838-10.399 22.801z"/><path d="M358.759 195.463c5.056-4.929 6.841-12.162 4.659-18.877s-7.878-11.518-14.865-12.533l-50.748-7.374a3.447 3.447 0 01-2.597-1.887l-22.695-45.985c-3.125-6.332-9.453-10.265-16.513-10.265s-13.388 3.933-16.513 10.265l-22.695 45.985a3.447 3.447 0 01-2.597 1.887l-50.747 7.374c-6.987 1.015-12.684 5.817-14.866 12.533-2.182 6.715-.397 13.948 4.66 18.877l36.721 35.794a3.446 3.446 0 01.992 3.053l-8.669 50.543c-1.194 6.96 1.614 13.861 7.326 18.011 3.228 2.345 7.004 3.536 10.806 3.536 2.926 0 5.868-.706 8.587-2.135l45.389-23.863a3.45 3.45 0 013.21 0l45.39 23.863c6.249 3.285 13.68 2.748 19.393-1.401 5.713-4.15 8.52-11.052 7.326-18.011l-8.669-50.543a3.449 3.449 0 01.991-3.052zm-52.464 41.377l8.669 50.543c.327 1.907-.851 2.994-1.372 3.373-.522.379-1.919 1.162-3.632.262l-45.391-23.863a18.413 18.413 0 00-17.138 0l-45.39 23.864c-1.711.9-3.11.116-3.632-.263-.521-.379-1.699-1.466-1.372-3.373l8.669-50.542a18.411 18.411 0 00-5.296-16.3l-36.721-35.794c-1.386-1.351-1.072-2.923-.873-3.535.199-.613.869-2.069 2.784-2.347l50.748-7.374a18.412 18.412 0 0013.865-10.073l22.695-45.985c.856-1.735 2.448-1.922 3.093-1.922s2.236.187 3.093 1.922l22.695 45.985a18.41 18.41 0 0013.865 10.073l50.748 7.374c1.915.278 2.584 1.734 2.784 2.347.199.613.513 2.185-.872 3.535l-36.723 35.795a18.407 18.407 0 00-5.296 16.298z"/></svg><svg viewBox="0 0 20 20" id="check-fill" xmlns="http://www.w3.org/2000/svg"><path d="M10 0C4.486 0 0 4.486 0 10s4.486 10 10 10 10-4.486 10-10S15.514 0 10 0zM8.001 14.413l-3.713-3.705L5.7 9.292l2.299 2.295 5.294-5.294 1.414 1.414-6.706 6.706z"/></svg><svg viewBox="0 0 18 10" id="chevron" xmlns="http://www.w3.org/2000/svg"><path d="M1 1l8 8 8-8"/></svg><svg viewBox="0 0 512 512" id="clock" xmlns="http://www.w3.org/2000/svg"><path d="M437.02 74.981C388.668 26.629 324.38 0 256 0S123.332 26.629 74.98 74.981C26.628 123.333 0 187.62 0 256s26.628 132.668 74.98 181.019C123.332 485.37 187.62 512 256 512s132.668-26.629 181.02-74.981C485.372 388.667 512 324.38 512 256s-26.628-132.668-74.98-181.019zM256 461.752c-113.453 0-205.752-92.3-205.752-205.752 0-.186.006-.37.007-.554 0-.047-.007-.092-.007-.139 0-.079.01-.155.012-.233.499-112.093 91.086-203.29 202.944-204.79.234-.011.466-.035.703-.035.142 0 .28.017.421.021.558-.004 1.114-.021 1.673-.021 113.453 0 205.752 92.3 205.752 205.752S369.453 461.752 256 461.752z"/><path d="M412.287 268.36c-8.366 0-15.148-6.782-15.148-15.148s6.782-15.148 15.148-15.148h18.259c-8.576-84.076-76.762-150.773-161.492-157.035v15.895c0 8.366-6.782 15.148-15.148 15.148s-15.148-6.782-15.148-15.148V81.391c-83.476 8.18-149.969 75.102-157.492 158.766h16.352c8.366 0 15.148 6.782 15.148 15.148s-6.782 15.148-15.148 15.148H81.142c6.965 85.011 74.791 153.045 159.71 160.342v-19.203c0-8.366 6.782-15.148 15.148-15.148s15.148 6.782 15.148 15.148v19.203c85.614-7.357 153.853-76.451 159.867-162.435h-18.728zm-94.967-52.258l-50.608 50.609a15.146 15.146 0 01-21.422 0l-88.093-88.093c-5.916-5.915-5.916-15.506 0-21.422 5.915-5.916 15.506-5.916 21.422 0l77.383 77.382L295.9 194.68c5.915-5.916 15.506-5.916 21.422 0 5.914 5.915 5.914 15.507-.002 21.422z"/></svg><svg viewBox="0 0 512 512" id="close" xmlns="http://www.w3.org/2000/svg"><g data-name="02 User"><path d="M25 512a25 25 0 01-17.68-42.68l462-462a25 25 0 0135.36 35.36l-462 462A24.93 24.93 0 0125 512z"/><path d="M487 512a24.93 24.93 0 01-17.68-7.32l-462-462A25 25 0 0142.68 7.32l462 462A25 25 0 01487 512z"/></g></svg><svg viewBox="0 0 48 48" id="guarantee_certificate_1888" xmlns="http://www.w3.org/2000/svg"><path d="M43.87 20.75a1.12 1.12 0 01-.27-1.35l.63-1.22a3.15 3.15 0 00.1-2.6 3.11 3.11 0 00-1.91-1.76l-1.31-.43a1.12 1.12 0 01-.76-1.14l.11-1.37a3.11 3.11 0 00-3.34-3.34l-1.37.11a1.1 1.1 0 01-1.14-.76l-.43-1.31a3.1 3.1 0 00-4.35-1.81l-1.23.63a1.1 1.1 0 01-1.34-.27l-.9-1a3.11 3.11 0 00-4.72 0l-.89 1a1.12 1.12 0 01-1.35.27l-1.22-.63a3.15 3.15 0 00-2.6-.1 3.11 3.11 0 00-1.76 1.91l-.43 1.31a1.11 1.11 0 01-1.14.76l-1.37-.11a3.12 3.12 0 00-3.34 3.34l.11 1.37a1.1 1.1 0 01-.76 1.14l-1.31.42a3.13 3.13 0 00-1.81 4.36l.63 1.23a1.1 1.1 0 01-.27 1.34l-1 .9a3.11 3.11 0 000 4.72l1 .89a1.12 1.12 0 01.27 1.35l-.63 1.22a3.15 3.15 0 00-.1 2.6 3.11 3.11 0 001.91 1.76l1.31.43a1.12 1.12 0 01.76 1.14l-.11 1.37a3.12 3.12 0 003.34 3.34l1.37-.11a1.1 1.1 0 011.14.76l.42 1.31a3.13 3.13 0 004.36 1.81l1.23-.63a1.1 1.1 0 011.34.27l.9 1A3.1 3.1 0 0024 46a3.13 3.13 0 002.36-1.08l.89-1.05a1.12 1.12 0 011.35-.27l1.22.63a3.15 3.15 0 002.6.1 3.11 3.11 0 001.76-1.91l.43-1.31a1.11 1.11 0 011.14-.76l1.37.11a3.11 3.11 0 003.34-3.34l-.11-1.37a1.1 1.1 0 01.76-1.14l1.31-.42a3.15 3.15 0 001.91-1.77 3.09 3.09 0 00-.11-2.59l-.62-1.23a1.1 1.1 0 01.27-1.34l1-.9a3.11 3.11 0 000-4.72zM24 38a14 14 0 1114-14 14 14 0 01-14 14z"/><path d="M24 12a12 12 0 1012 12 12 12 0 00-12-12zm6.71 8.71l-8 8a1 1 0 01-1.42 0l-4-4a1 1 0 011.42-1.42l3.29 3.3 7.29-7.3a1 1 0 011.42 1.42z"/></svg><svg viewBox="0 0 22 28" id="location" xmlns="http://www.w3.org/2000/svg"><path d="M11 .875A10.325 10.325 0 00.688 11.188a10.208 10.208 0 002.077 6.187s.281.37.327.424L11 27.125l7.912-9.33c.04-.05.323-.42.323-.42v-.003a10.205 10.205 0 002.078-6.184A10.324 10.324 0 0011 .874zm0 14.063a3.75 3.75 0 110-7.5 3.75 3.75 0 010 7.5z"/></svg><svg viewBox="0 0 512 512" id="mail" xmlns="http://www.w3.org/2000/svg"><path d="M507.49 101.721L352.211 256 507.49 410.279c2.807-5.867 4.51-12.353 4.51-19.279V121c0-6.927-1.703-13.412-4.51-19.279zM467 76H45c-6.927 0-13.412 1.703-19.279 4.51l198.463 197.463c17.548 17.548 46.084 17.548 63.632 0L486.279 80.51C480.412 77.703 473.927 76 467 76zM4.51 101.721C1.703 107.588 0 114.073 0 121v270c0 6.927 1.703 13.413 4.51 19.279L159.789 256 4.51 101.721z"/><path d="M331 277.211l-21.973 21.973c-29.239 29.239-76.816 29.239-106.055 0L181 277.211 25.721 431.49C31.588 434.297 38.073 436 45 436h422c6.927 0 13.412-1.703 19.279-4.51L331 277.211z"/></svg><svg viewBox="0 0 11 14" id="play" xmlns="http://www.w3.org/2000/svg"><path d="M0 14l11-7L0 0v14z"/></svg><svg viewBox="0 0 503.607 503.607" id="type-1" xmlns="http://www.w3.org/2000/svg"><path d="M461.64 259.945c-4.196 0-8.393 4.197-8.393 8.393 0 5.036 3.357 8.393 8.393 8.393s8.393-3.357 8.393-8.393-3.357-8.393-8.393-8.393zM486.82 234.765c-4.196 0-8.393 4.196-8.393 8.393 0 5.036 3.357 8.393 8.393 8.393s8.393-3.357 8.393-8.393-3.357-8.393-8.393-8.393zM436.46 234.765c-4.197 0-8.393 4.196-8.393 8.393 0 5.036 3.357 8.393 8.393 8.393s8.393-3.357 8.393-8.393-3.357-8.393-8.393-8.393zM411.279 259.945c-4.196 0-8.393 4.197-8.393 8.393 0 5.036 3.357 8.393 8.393 8.393s8.393-3.357 8.393-8.393-3.357-8.393-8.393-8.393zM360.919 259.945c-4.197 0-8.393 4.197-8.393 8.393 0 5.036 3.357 8.393 8.393 8.393s8.393-3.357 8.393-8.393-3.357-8.393-8.393-8.393zM386.099 234.765c-4.196 0-8.393 4.196-8.393 8.393 0 5.036 3.357 8.393 8.393 8.393s8.393-3.357 8.393-8.393-3.357-8.393-8.393-8.393zM335.737 234.765c-4.196 0-8.393 4.196-8.393 8.393 0 5.036 3.357 8.393 8.393 8.393s8.393-3.357 8.393-8.393-3.357-8.393-8.393-8.393zM310.557 259.945c-4.196 0-8.393 4.197-8.393 8.393 0 5.036 3.357 8.393 8.393 8.393s8.393-3.357 8.393-8.393-3.356-8.393-8.393-8.393zM260.196 259.945c-4.196 0-8.393 4.197-8.393 8.393 0 5.036 3.357 8.393 8.393 8.393s8.393-3.357 8.393-8.393-3.357-8.393-8.393-8.393zM285.378 234.765c-4.197 0-8.393 4.196-8.393 8.393 0 5.036 3.357 8.393 8.393 8.393s8.393-3.357 8.393-8.393-3.357-8.393-8.393-8.393zM461.64 209.585c-4.196-.001-8.393 4.196-8.393 8.393 0 5.036 3.357 8.393 8.393 8.393s8.393-3.357 8.393-8.393c0-5.036-3.357-8.393-8.393-8.393zM461.64 159.224c-4.196 0-8.393 4.196-8.393 8.393 0 5.036 3.357 8.393 8.393 8.393s8.393-3.357 8.393-8.393-3.357-8.393-8.393-8.393zM486.82 184.404c-4.196 0-8.393 4.197-8.393 8.393 0 5.036 3.357 8.393 8.393 8.393s8.393-3.357 8.393-8.393-3.357-8.393-8.393-8.393zM436.46 184.404c-4.197 0-8.393 4.197-8.393 8.393 0 5.036 3.357 8.393 8.393 8.393s8.393-3.357 8.393-8.393-3.357-8.393-8.393-8.393zM411.279 209.585c-4.196-.001-8.393 4.196-8.393 8.393 0 5.036 3.357 8.393 8.393 8.393s8.393-3.357 8.393-8.393c0-5.036-3.357-8.393-8.393-8.393zM360.919 209.585c-4.197-.001-8.393 4.196-8.393 8.393 0 5.036 3.357 8.393 8.393 8.393s8.393-3.357 8.393-8.393c0-5.036-3.357-8.393-8.393-8.393zM411.279 159.224c-4.196 0-8.393 4.196-8.393 8.393 0 5.036 3.357 8.393 8.393 8.393s8.393-3.357 8.393-8.393-3.357-8.393-8.393-8.393zM360.919 159.224c-4.197 0-8.393 4.196-8.393 8.393 0 5.036 3.357 8.393 8.393 8.393s8.393-3.357 8.393-8.393-3.357-8.393-8.393-8.393zM386.099 184.404c-4.196 0-8.393 4.197-8.393 8.393 0 5.036 3.357 8.393 8.393 8.393s8.393-3.357 8.393-8.393-3.357-8.393-8.393-8.393zM335.737 184.404c-4.196 0-8.393 4.197-8.393 8.393 0 5.036 3.357 8.393 8.393 8.393s8.393-3.357 8.393-8.393-3.357-8.393-8.393-8.393zM310.557 209.585c-4.196-.001-8.393 4.196-8.393 8.393 0 5.036 3.357 8.393 8.393 8.393s8.393-3.357 8.393-8.393c.001-5.036-3.356-8.393-8.393-8.393zM260.196 209.585c-4.196-.001-8.393 4.196-8.393 8.393 0 5.036 3.357 8.393 8.393 8.393s8.393-3.357 8.393-8.393c0-5.036-3.357-8.393-8.393-8.393zM310.557 159.224c-4.196 0-8.393 4.196-8.393 8.393 0 5.036 3.357 8.393 8.393 8.393s8.393-3.357 8.393-8.393-3.356-8.393-8.393-8.393zM260.196 159.224c-4.196 0-8.393 4.196-8.393 8.393 0 5.036 3.357 8.393 8.393 8.393s8.393-3.357 8.393-8.393-3.357-8.393-8.393-8.393zM285.378 184.404c-4.197 0-8.393 4.197-8.393 8.393 0 5.036 3.357 8.393 8.393 8.393s8.393-3.357 8.393-8.393-3.357-8.393-8.393-8.393zM461.64 108.863c-4.196 0-8.393 4.197-8.393 8.393 0 5.036 3.357 8.393 8.393 8.393s8.393-3.357 8.393-8.393-3.357-8.393-8.393-8.393zM486.82 134.044c-4.196-.001-8.393 4.196-8.393 8.393 0 5.036 3.357 8.393 8.393 8.393s8.393-3.357 8.393-8.393-3.357-8.393-8.393-8.393zM436.46 134.044c-4.197-.001-8.393 4.196-8.393 8.393 0 5.036 3.357 8.393 8.393 8.393s8.393-3.357 8.393-8.393-3.357-8.393-8.393-8.393zM486.82 83.683c-4.196 0-8.393 4.196-8.393 8.393 0 5.036 3.357 8.393 8.393 8.393s8.393-3.357 8.393-8.393-3.357-8.393-8.393-8.393zM436.46 83.683c-4.197 0-8.393 4.196-8.393 8.393 0 5.036 3.357 8.393 8.393 8.393s8.393-3.357 8.393-8.393-3.357-8.393-8.393-8.393zM411.279 108.863c-4.196 0-8.393 4.197-8.393 8.393 0 5.036 3.357 8.393 8.393 8.393s8.393-3.357 8.393-8.393-3.357-8.393-8.393-8.393zM360.919 108.863c-4.197 0-8.393 4.197-8.393 8.393 0 5.036 3.357 8.393 8.393 8.393s8.393-3.357 8.393-8.393-3.357-8.393-8.393-8.393zM386.099 134.044c-4.196-.001-8.393 4.196-8.393 8.393 0 5.036 3.357 8.393 8.393 8.393s8.393-3.357 8.393-8.393-3.357-8.393-8.393-8.393zM335.737 134.044c-4.196-.001-8.393 4.196-8.393 8.393 0 5.036 3.357 8.393 8.393 8.393s8.393-3.357 8.393-8.393-3.357-8.393-8.393-8.393zM386.099 83.683c-4.196 0-8.393 4.196-8.393 8.393 0 5.036 3.357 8.393 8.393 8.393s8.393-3.357 8.393-8.393-3.357-8.393-8.393-8.393zM335.737 83.683c-4.196 0-8.393 4.196-8.393 8.393 0 5.036 3.357 8.393 8.393 8.393s8.393-3.357 8.393-8.393-3.357-8.393-8.393-8.393zM310.557 108.863c-4.196 0-8.393 4.197-8.393 8.393 0 5.036 3.357 8.393 8.393 8.393s8.393-3.357 8.393-8.393-3.356-8.393-8.393-8.393zM260.196 108.863c-4.196 0-8.393 4.197-8.393 8.393 0 5.036 3.357 8.393 8.393 8.393s8.393-3.357 8.393-8.393-3.357-8.393-8.393-8.393zM285.378 134.044c-4.197-.001-8.393 4.196-8.393 8.393 0 5.036 3.357 8.393 8.393 8.393s8.393-3.357 8.393-8.393-3.357-8.393-8.393-8.393zM285.378 83.683c-4.197 0-8.393 4.196-8.393 8.393 0 5.036 3.357 8.393 8.393 8.393s8.393-3.357 8.393-8.393-3.357-8.393-8.393-8.393zM461.64 58.503c-4.196-.001-8.393 4.196-8.393 8.393 0 5.036 3.357 8.393 8.393 8.393s8.393-3.357 8.393-8.393-3.357-8.393-8.393-8.393zM461.64 8.142c-4.196 0-8.393 4.196-8.393 8.393 0 5.036 3.357 8.393 8.393 8.393s8.393-3.357 8.393-8.393c0-5.036-3.357-8.393-8.393-8.393zM486.82 33.322c-4.196 0-8.393 4.197-8.393 8.393 0 5.036 3.357 8.393 8.393 8.393s8.393-3.357 8.393-8.393c0-5.036-3.357-8.393-8.393-8.393zM436.46 33.322c-4.197 0-8.393 4.197-8.393 8.393 0 5.036 3.357 8.393 8.393 8.393s8.393-3.357 8.393-8.393c0-5.036-3.357-8.393-8.393-8.393zM411.279 58.503c-4.196-.001-8.393 4.196-8.393 8.393 0 5.036 3.357 8.393 8.393 8.393s8.393-3.357 8.393-8.393-3.357-8.393-8.393-8.393zM360.919 58.503c-4.197-.001-8.393 4.196-8.393 8.393 0 5.036 3.357 8.393 8.393 8.393s8.393-3.357 8.393-8.393-3.357-8.393-8.393-8.393zM411.279 8.142c-4.196 0-8.393 4.196-8.393 8.393 0 5.036 3.357 8.393 8.393 8.393s8.393-3.357 8.393-8.393c0-5.036-3.357-8.393-8.393-8.393zM360.919 8.142c-4.197 0-8.393 4.196-8.393 8.393 0 5.036 3.357 8.393 8.393 8.393s8.393-3.357 8.393-8.393c0-5.036-3.357-8.393-8.393-8.393zM386.099 33.322c-4.196 0-8.393 4.197-8.393 8.393 0 5.036 3.357 8.393 8.393 8.393s8.393-3.357 8.393-8.393c0-5.036-3.357-8.393-8.393-8.393zM335.737 33.322c-4.196 0-8.393 4.197-8.393 8.393 0 5.036 3.357 8.393 8.393 8.393s8.393-3.357 8.393-8.393c0-5.036-3.357-8.393-8.393-8.393zM310.557 58.503c-4.196-.001-8.393 4.196-8.393 8.393 0 5.036 3.357 8.393 8.393 8.393s8.393-3.357 8.393-8.393-3.356-8.393-8.393-8.393zM260.196 58.503c-4.196-.001-8.393 4.196-8.393 8.393 0 5.036 3.357 8.393 8.393 8.393s8.393-3.357 8.393-8.393-3.357-8.393-8.393-8.393zM310.557 8.142c-4.196 0-8.393 4.196-8.393 8.393 0 5.036 3.357 8.393 8.393 8.393s8.393-3.357 8.393-8.393c.001-5.036-3.356-8.393-8.393-8.393zM260.196 8.142c-4.196 0-8.393 4.196-8.393 8.393 0 5.036 3.357 8.393 8.393 8.393s8.393-3.357 8.393-8.393c0-5.036-3.357-8.393-8.393-8.393zM285.378 33.322c-4.197 0-8.393 4.197-8.393 8.393 0 5.036 3.357 8.393 8.393 8.393s8.393-3.357 8.393-8.393c0-5.036-3.357-8.393-8.393-8.393z"/><path d="M503.607 8.393c0-5.036-3.357-8.393-8.393-8.393H8.393C3.357 0 0 3.357 0 8.393v486.821c0 5.036 3.357 8.393 8.393 8.393h243.41c5.036 0 8.394-3.358 8.393-8.395v-100.72H461.64c23.502 0 41.967-26.02 41.967-58.754V8.393zm-243.409 8.394H486.82v271.718c-2.291-2.383-4.772-4.432-7.402-6.125-.385-.249-.77-.496-1.162-.728-.242-.143-.489-.275-.734-.412a33.916 33.916 0 00-.988-.539c-.311-.162-.626-.314-.941-.466a36.189 36.189 0 00-1.889-.843c-.154-.063-.309-.121-.464-.182a32.108 32.108 0 00-6.052-1.716 29.647 29.647 0 00-2.749-.371c-.283-.025-.566-.054-.851-.072a30.888 30.888 0 00-1.948-.067H260.198V16.787zm-41.969 360.917c-7.973 0-15.355-6.806-20.037-17.079-3.203-7.029-5.143-15.682-5.143-24.888 0-4.957.562-9.754 1.581-14.223 3.64-15.961 13.106-27.744 23.599-27.744h33.551l.023.001h180.275c-7.691 10.62-12.406 25.434-12.406 41.967 0 16.533 4.715 31.346 12.405 41.966H218.229zm25.182 109.116H16.787V16.787H243.41v260.197h-25.181c-23.501 0-41.967 26.02-41.967 58.754s18.465 58.754 41.967 58.754h25.181v92.328zM461.64 377.704c-7.973 0-15.355-6.806-20.037-17.079-3.203-7.029-5.143-15.682-5.143-24.888 0-4.957.562-9.754 1.581-14.223 3.637-15.95 13.094-27.727 23.577-27.743h.023c9.088 0 17.403 8.848 21.832 21.589 2.115 6.085 3.348 13.053 3.347 20.377 0 22.662-11.75 41.967-25.18 41.967z"/></svg><svg viewBox="0 0 64 64" id="type-2" xmlns="http://www.w3.org/2000/svg"><path d="M4 35h23v-2H3a1 1 0 00-1 1v24h2zM4 4h23V2H3a1 1 0 00-1 1v24h2z"/><path d="M61.118 14.79l1.437-.958-1.11-1.664-1.436.957a11.068 11.068 0 01-6.391 1.834L51.15 9.672a12.955 12.955 0 002.763.306 12.968 12.968 0 007.204-2.189l1.437-.957-1.11-1.664-1.436.957a10.945 10.945 0 01-9.993 1.117L48.72 4.46a3.003 3.003 0 00-4.693-.993A12.916 12.916 0 0031 4.138V2h-2v27H2v2h27v29H2v2h28a1 1 0 001-1v-5.465l.991-.66A11.054 11.054 0 0141 53.437V61a1 1 0 001 1h8a1 1 0 001-1v-2.367a12.99 12.99 0 0010.118-1.844l1.437-.957-1.11-1.664-1.436.957A11.053 11.053 0 0151 56.563v-4.93a12.99 12.99 0 0010.118-1.844l1.437-.957-1.11-1.664-1.436.957A11.056 11.056 0 0151 49.563v-4.93a12.99 12.99 0 0010.118-1.844l1.437-.957-1.11-1.664-1.436.957A11.06 11.06 0 0151 42.562V39a1 1 0 00-1-1h-1v-.99a12.899 12.899 0 0012.118-1.22l1.437-.958-1.11-1.664-1.436.957A10.92 10.92 0 0149 34.791V32h4.719a4.969 4.969 0 003.536-1.475l.003.01a12.96 12.96 0 003.86-1.746l1.437-.957-1.11-1.664-1.436.957a10.987 10.987 0 01-1.37.772 4.979 4.979 0 00-.389-3.011l-.674-1.445a12.903 12.903 0 003.542-1.652l1.437-.957-1.11-1.664-1.436.957a10.906 10.906 0 01-3.292 1.475l-2.17-4.651a13.055 13.055 0 006.571-2.16zM31.991 5.874a10.927 10.927 0 0110.954-.693l-1.951 4.18A13.072 13.072 0 0031 11.142V6.535zM42.995 38A12.933 12.933 0 0031 39.142v-4.607l.991-.66A10.924 10.924 0 0143 33.209V38zM31 41.535l.991-.66A10.951 10.951 0 0141 39.425v4.94a13.074 13.074 0 00-10 1.777zm0-9.397v-4.603l.991-.66a10.983 10.983 0 011.37-.771 4.923 4.923 0 001.338 4.372A13.054 13.054 0 0031 32.138zm3.357-8.553A12.954 12.954 0 0031 25.139v-4.604l.991-.66a10.951 10.951 0 014.927-1.779zm3.525-7.553A12.947 12.947 0 0031 18.138v-4.603l.991-.66a11.06 11.06 0 018.13-1.643zM31 53.142v-4.607l.991-.66A11.054 11.054 0 0141 46.437v4.927a13.068 13.068 0 00-10 1.778zM49 60h-6V40h6zm-4-22V27a1 1 0 012 0v11zm11.249-9.389A2.986 2.986 0 0153.719 30H49v-3a3 3 0 00-6 0v3h-4.719a3 3 0 01-2.719-4.269l9.532-20.424a1 1 0 011.812 0l9.531 20.424a2.986 2.986 0 01-.188 2.88z"/></svg><svg viewBox="0 0 609.621 609.621" id="type-3" xmlns="http://www.w3.org/2000/svg"><path d="M579.14 101.604c16.799-.083 30.398-13.681 30.481-30.481 0-16.834-13.647-30.481-30.481-30.481h-10.16v-10.16a29.712 29.712 0 00-8.88-21.408A29.82 29.82 0 00538.499.001c-16.834 0-30.481 13.647-30.481 30.481v10.16h-40.641v-10.16a29.712 29.712 0 00-8.88-21.408A29.82 29.82 0 00436.896.001c-16.834 0-30.481 13.647-30.481 30.481v10.16h-40.641v-10.16a29.712 29.712 0 00-8.88-21.408A29.82 29.82 0 00335.293.001c-16.834 0-30.481 13.647-30.481 30.481v10.16H271.19c0-22.446-18.196-40.641-40.641-40.641H50.802C22.759.034.034 22.759 0 50.802v508.017c.034 28.043 22.759 50.768 50.802 50.802h508.017c28.043-.034 50.768-22.759 50.802-50.802V379.083c0-22.446-18.196-40.641-40.641-40.641v-33.631h10.16c16.799-.083 30.398-13.681 30.481-30.481 0-16.834-13.647-30.481-30.481-30.481h-10.16v-40.641h10.16c16.799-.083 30.398-13.681 30.481-30.481 0-16.834-13.647-30.481-30.481-30.481h-10.16v-40.641h10.16zm0-40.641c5.611 0 10.16 4.549 10.16 10.16a9.934 9.934 0 01-3.109 7.244 9.806 9.806 0 01-7.051 2.916h-10.16v-20.32zm-50.802-30.481c0-5.611 4.549-10.16 10.16-10.16a9.936 9.936 0 017.234 3.109 9.72 9.72 0 012.926 7.051v312.085c-3.546 1.138-6.889 2.306-10.16 3.465-3.272 1.158-6.675 2.347-10.16 3.444zm-81.283 71.122v40.641h-20.321v-40.641zm60.962 0v40.641h-40.641v-40.641zM365.772 284.49v-20.321h142.245v20.321zm142.245-121.924v20.321H365.772v-20.321zm-81.283 81.283v-40.641h20.321v40.641zm-60.962 0v-40.641h40.641v40.641zm101.604-40.642h40.641v40.641h-40.641zm-60.962-60.962h-40.641v-40.641h40.641zm-40.642 162.566h40.641v34.108a170.343 170.343 0 00-37.309-3.627c-1.148 0-2.215.132-3.333.173v-30.654zm60.962 0h20.321v46.616c-6.096-1.585-11.501-3.465-16.978-5.395l-3.343-1.168zm40.642 0h40.641v49.267a167.328 167.328 0 01-23.735 1.534c-6.35 0-11.888-.274-16.907-.732v-50.069zM426.734 30.482c0-5.611 4.549-10.16 10.16-10.16a9.936 9.936 0 017.234 3.109 9.72 9.72 0 012.926 7.051v10.16h-20.321v-10.16zm81.283 30.481v20.321H365.772V60.963zM325.131 30.482c0-5.611 4.549-10.16 10.16-10.16a9.936 9.936 0 017.234 3.109 9.72 9.72 0 012.926 7.051v307.909a121.276 121.276 0 00-20.321 7.224V30.482zm-54.409 172.725h34.088v40.641h-30.654c0-1.148.173-2.245.173-3.414a170.528 170.528 0 00-3.607-37.227zm34.088-60.962h-50.06c-.467-5.029-.742-10.597-.742-16.988-.049-7.91.46-15.815 1.524-23.653h49.278zm0 20.321v20.321h-40.022c-.406-1.138-.803-2.296-1.199-3.424-1.92-5.446-3.8-10.811-5.375-16.897zm-33.59 101.603h33.59v20.321h-40.834a122.22 122.22 0 007.244-20.321zm-17.76 40.642h51.35v51.32c-23.003 12.629-33.529 16.805-50.802-.518s-13.157-27.83-.548-50.802zm51.35-223.528h-44.705c1.097-3.495 2.276-6.828 3.465-10.16 1.189-3.333 2.317-6.594 3.444-10.16h37.796zm284.49 297.8v179.736c0 16.834-13.647 30.481-30.481 30.481H50.802c-16.834 0-30.481-13.647-30.481-30.481V50.802c0-16.834 13.647-30.481 30.481-30.481h179.736a20.373 20.373 0 0119.793 25.096 184.312 184.312 0 01-5.903 18.898 158.348 158.348 0 00-10.739 60.962 158.31 158.31 0 0010.739 60.962 139.192 139.192 0 019.581 54.195 106.186 106.186 0 01-17.516 53.037c-12.192 22.15-26.082 47.266 3.14 76.507 29.221 29.241 54.317 15.383 76.467 3.15a106.095 106.095 0 0153.006-17.516 139.317 139.317 0 0154.216 9.581 158.191 158.191 0 0060.962 10.739 158.063 158.063 0 0060.962-10.75 185.297 185.297 0 0118.949-5.903 20.39 20.39 0 0125.105 19.804zm-10.16-114.914c5.611 0 10.16 4.549 10.16 10.16a9.934 9.934 0 01-3.109 7.244 9.806 9.806 0 01-7.051 2.916h-10.16v-20.321h10.16zm0-101.603c5.611 0 10.16 4.549 10.16 10.16a9.934 9.934 0 01-3.109 7.244 9.806 9.806 0 01-7.051 2.916h-10.16v-20.321h10.16z"/><path d="M81.283 497.857c-16.834 0-30.481 13.647-30.481 30.481s13.647 30.481 30.481 30.481 30.481-13.647 30.481-30.481-13.647-30.481-30.481-30.481zm0 40.641c-5.611 0-10.16-4.549-10.16-10.16s4.549-10.16 10.16-10.16 10.16 4.549 10.16 10.16c0 5.612-4.549 10.16-10.16 10.16zM182.886 50.802c-16.834 0-30.481 13.647-30.481 30.481s13.647 30.481 30.481 30.481 30.481-13.647 30.481-30.481-13.646-30.481-30.481-30.481zm0 40.642c-5.611 0-10.16-4.549-10.16-10.16s4.549-10.16 10.16-10.16 10.16 4.549 10.16 10.16c.001 5.611-4.548 10.16-10.16 10.16z"/><g clip-rule="evenodd" fill-rule="evenodd"><circle cx="91.443" cy="467.376" r="10.16"/><circle cx="162.566" cy="142.245" r="10.16"/><circle cx="548.659" cy="406.414" r="10.16"/><path d="M491.608 500.001a10.16 10.16 0 004.971 18.114 10.16 10.16 0 10-4.971-18.114zM471.288 398.398a10.16 10.16 0 004.971 18.114 10.16 10.16 0 10-4.971-18.114z"/></g></svg><svg viewBox="0 0 512 512" id="type-4" xmlns="http://www.w3.org/2000/svg"><path d="M451.152 503.385L427.883 348.69a7.501 7.501 0 00-14.834 2.23L435.022 497h-18.236L399.52 382.208a7.508 7.508 0 00-.075-1.312l-5.258-34.148-.003-.014-11.598-77.109-.001-.01-4.36-28.986-17.453-116.035v-.007l-11.174-74.285-.556-3.696h18.235L409.29 325.92c.616 4.097 4.437 6.91 8.532 6.302a7.501 7.501 0 006.302-8.532L382.447 46.605h35.428c4.143 0 7.5-3.357 7.5-7.5V7.5c0-4.143-3.357-7.5-7.5-7.5H94.125a7.499 7.499 0 00-7.5 7.5v31.605c0 4.143 3.357 7.5 7.5 7.5h35.427l-68.704 456.78A7.5 7.5 0 0068.265 512h33.405a7.502 7.502 0 007.417-6.385l49.558-329.488 49.558 329.488A7.502 7.502 0 00215.62 512h33.405a7.5 7.5 0 005.684-2.607 7.496 7.496 0 001.291-2.148 7.496 7.496 0 001.291 2.148 7.5 7.5 0 005.684 2.607h33.405a7.502 7.502 0 007.417-6.385l17.459-116.078h64.198l17.459 116.078A7.502 7.502 0 00410.33 512h33.405a7.503 7.503 0 007.417-8.615zM231.926 340.389l-9.349-62.159h66.847l-9.349 62.159zm-11.605-77.16l-2.88-19.147h146.135l2.88 19.147zm101.013-96.306h18.236l-9.349 62.159h-18.236zm24.057 62.159l7.964-52.953 7.965 52.953zM336.652 65.08l7.926 52.696h-15.852zm9.815 67.695l3.133 19.147H203.579l-2.88-19.147zm-40.302 34.148l-9.349 62.159h-81.631l-9.349-62.159zm-1.572 111.306h18.235l-9.349 62.159h-18.235zm33.405 0h30.714l9.349 62.159h-49.413zM101.625 15h308.75v16.605H304.448c-4.143 0-7.5 3.357-7.5 7.5s3.357 7.5 7.5 7.5h19.813l-10.705 71.17H198.443l-10.705-71.17h91.71c4.143 0 7.5-3.357 7.5-7.5s-3.357-7.5-7.5-7.5H101.625zm-6.411 482H76.978l64.965-431.92 9.118 60.622zm126.862 0L154.333 46.605h18.236l11.997 79.761.002.024 5.137 34.147.003.015 11.602 77.133.001.011 5.136 34.147.004.02 11.6 77.123a.08.08 0 01.001.016l5.137 34.148.001.008L240.313 497zM256 500.444l-16.681-110.906h33.363zM289.924 497h-18.236l16.163-107.463h18.236zm-52.862-122.463l-2.88-19.148h146.135l2.88 19.148z"/></svg><svg viewBox="0 0 24 24" id="whatsapp" xmlns="http://www.w3.org/2000/svg"><path d="M2.004 22l1.352-4.968A9.954 9.954 0 012 12C2 6.477 6.477 2 12 2s10 4.477 10 10-4.477 10-10 10a9.953 9.953 0 01-5.03-1.355L2.004 22zM8.391 7.308a.961.961 0 00-.371.1 1.293 1.293 0 00-.294.228c-.12.113-.188.211-.261.306A2.729 2.729 0 006.9 9.62c.002.49.13.967.33 1.413.409.902 1.082 1.857 1.971 2.742.214.213.423.427.648.626a9.448 9.448 0 003.84 2.046l.569.087c.185.01.37-.004.556-.013a1.99 1.99 0 00.833-.231c.131-.067.259-.14.383-.22 0 0 .043-.028.125-.09.135-.1.218-.171.33-.288.083-.086.155-.187.21-.302.078-.163.156-.474.188-.733.024-.198.017-.306.014-.373-.004-.107-.093-.218-.19-.265l-.582-.261s-.87-.379-1.401-.621a.498.498 0 00-.177-.041.482.482 0 00-.378.127v-.002c-.005 0-.072.057-.795.933a.35.35 0 01-.368.13 1.418 1.418 0 01-.191-.066c-.124-.052-.167-.072-.252-.109l-.005-.002a6.011 6.011 0 01-1.57-1c-.126-.11-.243-.23-.363-.346a6.298 6.298 0 01-1.02-1.268l-.059-.095a.923.923 0 01-.102-.205c-.038-.147.061-.265.061-.265s.243-.266.356-.41a4.38 4.38 0 00.263-.373c.118-.19.155-.385.093-.536-.28-.684-.57-1.365-.868-2.041-.059-.134-.234-.23-.393-.249a4.439 4.439 0 00-.162-.016 3.385 3.385 0 00-.403.004v.001z"/></svg></svg>