<svg id="Capa_1" enable-background="new 0 0 609.621 609.621" height="512" viewBox="0 0 609.621 609.621" width="512" xmlns="http://www.w3.org/2000/svg"><g><g id="Page-1_41_"><g id="_x30_42---Reinforced-Concrete"><path id="Shape_111_" d="m579.14 101.604c16.799-.083 30.398-13.681 30.481-30.481 0-16.834-13.647-30.481-30.481-30.481h-10.16v-10.16c.06-8.044-3.144-15.768-8.88-21.408-5.661-5.845-13.464-9.122-21.601-9.073-16.834 0-30.481 13.647-30.481 30.481v10.16h-40.641v-10.16c.06-8.044-3.144-15.768-8.88-21.408-5.661-5.845-13.464-9.122-21.601-9.073-16.834 0-30.481 13.647-30.481 30.481v10.16h-40.641v-10.16c.06-8.044-3.144-15.768-8.88-21.408-5.661-5.845-13.464-9.122-21.601-9.073-16.834 0-30.481 13.647-30.481 30.481v10.16h-33.622c0-22.446-18.196-40.641-40.641-40.641h-179.747c-28.043.033-50.768 22.758-50.802 50.801v508.017c.034 28.043 22.759 50.768 50.802 50.802h508.017c28.043-.034 50.768-22.759 50.802-50.802v-179.736c0-22.446-18.196-40.641-40.641-40.641v-33.631h10.16c16.799-.083 30.398-13.681 30.481-30.481 0-16.834-13.647-30.481-30.481-30.481h-10.16v-40.641h10.16c16.799-.083 30.398-13.681 30.481-30.481 0-16.834-13.647-30.481-30.481-30.481h-10.16v-40.641h10.16zm0-40.641c5.611 0 10.16 4.549 10.16 10.16.007 2.74-1.118 5.362-3.109 7.244-1.86 1.884-4.404 2.936-7.051 2.916h-10.16v-20.32zm-50.802-30.481c0-5.611 4.549-10.16 10.16-10.16 2.737-.004 5.354 1.121 7.234 3.109 1.896 1.853 2.953 4.4 2.926 7.051v312.085c-3.546 1.138-6.889 2.306-10.16 3.465-3.272 1.158-6.675 2.347-10.16 3.444zm-81.283 71.122v40.641h-20.321v-40.641zm60.962 0v40.641h-40.641v-40.641zm-142.245 182.886v-20.321h142.245v20.321zm142.245-121.924v20.321h-142.245v-20.321zm-81.283 81.283v-40.641h20.321v40.641zm-60.962 0v-40.641h40.641v40.641zm101.604-40.642h40.641v40.641h-40.641zm-60.962-60.962h-40.641v-40.641h40.641zm-40.642 162.566h40.641v34.108c-12.265-2.578-24.777-3.794-37.309-3.627-1.148 0-2.215.132-3.333.173v-30.654zm60.962 0h20.321v46.616c-6.096-1.585-11.501-3.465-16.978-5.395l-3.343-1.168zm40.642 0h40.641v49.267c-7.865 1.074-15.797 1.586-23.735 1.534-6.35 0-11.888-.274-16.907-.732v-50.069zm-40.642-274.329c0-5.611 4.549-10.16 10.16-10.16 2.737-.004 5.354 1.121 7.234 3.109 1.896 1.853 2.953 4.4 2.926 7.051v10.16h-20.321v-10.16zm81.283 30.481v20.321h-142.245v-20.321zm-182.886-30.481c0-5.611 4.549-10.16 10.16-10.16 2.737-.004 5.354 1.121 7.234 3.109 1.896 1.853 2.953 4.4 2.926 7.051v307.909c-6.975 1.8-13.775 4.217-20.321 7.224v-315.133zm-54.409 172.725h34.088v40.641h-30.654c0-1.148.173-2.245.173-3.414.166-12.503-1.043-24.987-3.607-37.227zm34.088-60.962h-50.06c-.467-5.029-.742-10.597-.742-16.988-.049-7.91.46-15.815 1.524-23.653h49.278zm0 20.321v20.321h-40.022c-.406-1.138-.803-2.296-1.199-3.424-1.92-5.446-3.8-10.811-5.375-16.897zm-33.59 101.603h33.59v20.321h-40.834c3.009-6.547 5.433-13.347 7.244-20.321zm-17.76 40.642h51.35v51.32c-23.003 12.629-33.529 16.805-50.802-.518s-13.157-27.83-.548-50.802zm51.35-223.528h-44.705c1.097-3.495 2.276-6.828 3.465-10.16 1.189-3.333 2.317-6.594 3.444-10.16h37.796zm284.49 297.8v179.736c0 16.834-13.647 30.481-30.481 30.481h-508.017c-16.834 0-30.481-13.647-30.481-30.481v-508.017c0-16.834 13.647-30.481 30.481-30.481h179.736c6.23.007 12.114 2.865 15.972 7.756 3.858 4.892 5.265 11.28 3.821 17.34-1.628 6.401-3.598 12.709-5.903 18.898-7.555 19.416-11.205 40.133-10.739 60.962-.467 20.829 3.183 41.546 10.739 60.962 6.769 17.247 10.026 35.673 9.581 54.195-1.001 18.925-7.049 37.238-17.516 53.037-12.192 22.15-26.082 47.266 3.14 76.507 29.221 29.241 54.317 15.383 76.467 3.15 15.789-10.466 34.091-16.514 53.006-17.516 18.529-.445 36.961 2.813 54.216 9.581 19.415 7.559 40.132 11.209 60.962 10.739 20.831.47 41.548-3.184 60.962-10.75 6.206-2.305 12.532-4.275 18.949-5.903 6.062-1.441 12.451-.03 17.343 3.829s7.751 9.744 7.762 15.975zm-10.16-114.914c5.611 0 10.16 4.549 10.16 10.16.007 2.74-1.118 5.362-3.109 7.244-1.86 1.884-4.404 2.936-7.051 2.916h-10.16v-20.321h10.16zm0-101.603c5.611 0 10.16 4.549 10.16 10.16.007 2.74-1.118 5.362-3.109 7.244-1.86 1.884-4.404 2.936-7.051 2.916h-10.16v-20.321h10.16z"/><path id="Shape_110_" d="m81.283 497.857c-16.834 0-30.481 13.647-30.481 30.481s13.647 30.481 30.481 30.481 30.481-13.647 30.481-30.481-13.647-30.481-30.481-30.481zm0 40.641c-5.611 0-10.16-4.549-10.16-10.16s4.549-10.16 10.16-10.16 10.16 4.549 10.16 10.16c0 5.612-4.549 10.16-10.16 10.16z"/><path id="Shape_109_" d="m182.886 50.802c-16.834 0-30.481 13.647-30.481 30.481s13.647 30.481 30.481 30.481 30.481-13.647 30.481-30.481-13.646-30.481-30.481-30.481zm0 40.642c-5.611 0-10.16-4.549-10.16-10.16s4.549-10.16 10.16-10.16 10.16 4.549 10.16 10.16c.001 5.611-4.548 10.16-10.16 10.16z"/><g clip-rule="evenodd" fill-rule="evenodd"><circle id="Oval" cx="91.443" cy="467.376" r="10.16"/><circle id="Oval_1_" cx="162.566" cy="142.245" r="10.16"/><circle id="Oval_2_" cx="548.659" cy="406.414" r="10.16"/><path id="Path_56_" d="m491.608 500.001c-3.252 2.52-4.663 6.752-3.574 10.72 1.089 3.967 4.462 6.887 8.545 7.394s8.068-1.497 10.095-5.077 1.695-8.029-.841-11.268c-3.447-4.405-9.805-5.195-14.225-1.769z"/><path id="Path_55_" d="m471.288 398.398c-3.252 2.52-4.663 6.752-3.574 10.72 1.089 3.967 4.462 6.887 8.545 7.394s8.068-1.497 10.095-5.077 1.695-8.029-.841-11.268c-3.448-4.405-9.805-5.195-14.225-1.769z"/></g></g></g></g></svg>