<?xml version="1.0"?>
<svg xmlns="http://www.w3.org/2000/svg" viewBox="0 0 64 64" width="512" height="512"><g id="OUTLINE"><path d="M4,35H27V33H3a.99943.99943,0,0,0-1,1V58H4Z"/><path d="M4,4H27V2H3A.99943.99943,0,0,0,2,3V27H4Z"/><path d="M61.11816,14.78906l1.43653-.957L61.44531,12.168l-1.43652.957a11.06777,11.06777,0,0,1-6.39124,1.83374L51.15076,9.67249a12.95487,12.95487,0,0,0,2.7633.306,12.96808,12.96808,0,0,0,7.2041-2.18946l1.43653-.957L61.44531,5.168l-1.43652.957a10.94462,10.94462,0,0,1-9.99243,1.11664l-1.29761-2.7807a3.00332,3.00332,0,0,0-4.693-.993A12.916,12.916,0,0,0,31,4.13788V2H29V29H2v2H29V60H2v2H30a.99943.99943,0,0,0,1-1V55.53534l.99121-.66034A11.05351,11.05351,0,0,1,41,53.43738V61a.99943.99943,0,0,0,1,1h8a.99943.99943,0,0,0,1-1V58.63342a12.98976,12.98976,0,0,0,10.11816-1.84436l1.43653-.957L61.44531,54.168l-1.43652.957A11.05331,11.05331,0,0,1,51,56.56268V51.63342a12.98976,12.98976,0,0,0,10.11816-1.84436l1.43653-.957L61.44531,47.168l-1.43652.957A11.05578,11.05578,0,0,1,51,49.5625V44.63342a12.98976,12.98976,0,0,0,10.11816-1.84436l1.43653-.957L61.44531,40.168l-1.43652.957A11.0597,11.0597,0,0,1,51,42.56244V39a.99943.99943,0,0,0-1-1H49v-.9892a12.89882,12.89882,0,0,0,12.11816-1.22174l1.43653-.957L61.44531,33.168l-1.43652.957A10.91984,10.91984,0,0,1,49,34.79144V32h4.71875a4.96866,4.96866,0,0,0,3.53644-1.47461l.00262.00977a12.96052,12.96052,0,0,0,3.86035-1.7461l1.43653-.957L61.44531,26.168l-1.43652.957a10.98653,10.98653,0,0,1-1.37036.77179A4.97889,4.97889,0,0,0,58.25,24.88574l-.674-1.44433a12.903,12.903,0,0,0,3.54217-1.65235l1.43653-.957L61.44531,19.168l-1.43652.957a10.90565,10.90565,0,0,1-3.29193,1.47528l-2.17078-4.65173A13.05483,13.05483,0,0,0,61.11816,14.78906ZM31.99121,5.875a10.927,10.927,0,0,1,10.95337-.69269L40.994,9.36249A13.07191,13.07191,0,0,0,31,11.14185V6.53534ZM42.995,38A12.93271,12.93271,0,0,0,31,39.14233v-4.607l.99121-.66034A10.92415,10.92415,0,0,1,43,33.20868V38ZM31,41.53534l.99121-.66034A10.9513,10.9513,0,0,1,41,39.42413v4.94025a13.07394,13.07394,0,0,0-10,1.77747Zm0-9.39746V27.53534l.99121-.66034a10.98276,10.98276,0,0,1,1.36963-.77142,4.92316,4.92316,0,0,0,1.33783,4.3728A13.05408,13.05408,0,0,0,31,32.13788Zm3.35718-8.55329A12.9544,12.9544,0,0,0,31,25.13885V20.53534l.99121-.66034a10.9514,10.9514,0,0,1,4.92712-1.77881Zm3.52435-7.55236A12.94654,12.94654,0,0,0,31,18.13812V13.53534l.99121-.66034a11.06069,11.06069,0,0,1,8.13031-1.64294ZM31,53.14178V48.53534l.99121-.66034A11.05351,11.05351,0,0,1,41,46.43738v4.92676A13.06769,13.06769,0,0,0,31,53.14178ZM49,60H43V40h6ZM45,38V27a1,1,0,0,1,2,0V38Zm11.249-9.38867A2.9861,2.9861,0,0,1,53.71875,30H49V27a3,3,0,0,0-6,0v3H38.28125a3.00042,3.00042,0,0,1-2.71876-4.26855L45.09375,5.30664a1.00008,1.00008,0,0,1,1.8125,0l9.53124,20.42481A2.98647,2.98647,0,0,1,56.249,28.61133Z"/></g></svg>
