<svg id="Capa_1" enable-background="new 0 0 512 512" height="512" viewBox="0 0 512 512" width="512" xmlns="http://www.w3.org/2000/svg"><path d="m451.152 503.385-23.269-154.695c-.616-4.096-4.424-6.914-8.532-6.302-4.097.616-6.917 4.437-6.302 8.532l21.973 146.08h-18.236l-17.266-114.792c.01-.436-.008-.875-.075-1.312l-5.258-34.148c-.001-.005-.002-.009-.003-.014l-11.598-77.109c0-.003 0-.007-.001-.01l-4.36-28.986-17.453-116.035c0-.002 0-.005 0-.007l-11.174-74.285-.556-3.696h18.235l42.013 279.314c.616 4.097 4.437 6.91 8.532 6.302 4.097-.616 6.917-4.437 6.302-8.532l-41.677-277.085h35.428c4.143 0 7.5-3.357 7.5-7.5v-31.605c0-4.143-3.357-7.5-7.5-7.5h-323.75c-4.143 0-7.5 3.357-7.5 7.5v31.605c0 4.143 3.357 7.5 7.5 7.5h35.427l-68.704 456.78c-.324 2.159.309 4.354 1.733 6.008 1.425 1.655 3.5 2.607 5.684 2.607h33.405c3.711 0 6.864-2.715 7.417-6.385l49.558-329.488 49.558 329.488c.553 3.67 3.706 6.385 7.417 6.385h33.405c2.184 0 4.259-.952 5.684-2.607.555-.645.986-1.373 1.291-2.148.305.775.736 1.503 1.291 2.148 1.425 1.655 3.5 2.607 5.684 2.607h33.405c3.711 0 6.864-2.715 7.417-6.385l17.459-116.078h64.198l17.459 116.078c.553 3.67 3.706 6.385 7.417 6.385h33.405c2.184 0 4.26-.952 5.685-2.607 1.424-1.655 2.057-3.849 1.732-6.008zm-219.226-162.996-9.349-62.159h66.847l-9.349 62.159zm-11.605-77.16-2.88-19.147h146.135l2.88 19.147zm101.013-96.306h18.236l-9.349 62.159h-18.236zm24.057 62.159 7.964-52.953 7.965 52.953zm-8.739-164.002 7.926 52.696h-15.852zm9.815 67.695 3.133 19.147h-146.021l-2.88-19.147zm-40.302 34.148-9.349 62.159h-81.631l-9.349-62.159zm-1.572 111.306h18.235l-9.349 62.159h-18.235zm33.405 0h30.714l9.349 62.159h-49.413zm-236.373-263.229h308.75v16.605h-105.927c-4.143 0-7.5 3.357-7.5 7.5s3.357 7.5 7.5 7.5h19.813l-10.705 71.17h-115.113l-10.705-71.17h91.71c4.143 0 7.5-3.357 7.5-7.5s-3.357-7.5-7.5-7.5h-177.823zm-6.411 482h-18.236l64.965-431.92 9.118 60.622zm126.862 0-67.743-450.395h18.236l11.997 79.761c.001.008.001.016.002.024l5.137 34.147c.001.005.002.01.003.015l11.602 77.133c0 .004 0 .008.001.011l5.136 34.147c.001.007.003.013.004.02l11.6 77.123c.001.005.001.01.001.016l5.137 34.148c0 .003.001.005.001.008l17.123 113.842zm33.924 3.444-16.681-110.906h33.363zm33.924-3.444h-18.236l16.163-107.463h18.236zm-52.862-122.463-2.88-19.148h146.135l2.88 19.148z"/></svg>